# xmcd
#
# Track frame offsets: 
#        150
#        11262
#        22227
#        36080
#        45795
#        58350
#        68850
#        78322
#        92910
#        101992
#
# Disc length: 1474 seconds
#
# Revision: 2
# Processed by: cddbd v1.5.1PL0 Copyright (c) Steve Scherf et al.
# Submitted via: ExactAudioCopy v0.95a5
#
DISCID=7e05c00a
DTITLE=Roy Clark and Buck Trent - Banjo Bandits
DYEAR=1994
DGENRE=Bluegrass
TTITLE0=Earl's Breakdown
TTITLE1=Bugle Call Rag
TTITLE2=Down Yonder
TTITLE3=Bluegrass Breakdown
TTITLE4=The World Is Waiting For The Sunrise
TTITLE5=Jolly HO (Happy Hour)
TTITLE6=Black Mountain Rag
TTITLE7=Beer Barrel Polka
TTITLE8=John Cumberland Creek
TTITLE9=Banjo Signal
EXTD=
EXTT0=
EXTT1=
EXTT2=
EXTT3=
EXTT4=
EXTT5=
EXTT6=
EXTT7=
EXTT8=
EXTT9=
PLAYORDER=
